STARTFONT 2.1
FONT --International-Medium-R-Normal--15-150-72-72-M-90-ISO8859-1
SIZE 15 72 72
FONTBOUNDINGBOX 9 15 0 -3

STARTPROPERTIES 25
_DEC_DEVICE_FONTNAMES "FM=International"
FONTNAME_REGISTRY ""
FAMILY_NAME "International"
FOUNDRY ""
WEIGHT_NAME "Medium"
SLANT "R"
SETWIDTH_NAME "Normal"
ADD_STYLE_NAME ""
PIXEL_SIZE 15
POINT_SIZE 150
RESOLUTION_X 72
RESOLUTION_Y 72
SPACING "M"
AVERAGE_WIDTH 90
CHARSET_REGISTRY "ISO8859"
CHARSET_ENCODING "1"
CHARSET_COLLECTIONS "ASCII ISO8859-1"
FULL_NAME "International"
CAP_HEIGHT 10
X_HEIGHT 7
WEIGHT 10
QUAD_WIDTH 9
DEFAULT_CHAR 0
FONT_DESCENT 3
FONT_ASCENT 12
ENDPROPERTIES

CHARS 190

STARTCHAR space
ENCODING 32
SWIDTH 602 0
DWIDTH 9 0
BBX 9 15 0 -3
BITMAP
0000
0000
0000
0000
0000
0000
0000
0000
0000
0000
0000
0000
0000
0000
0000
ENDCHAR

STARTCHAR exclam
ENCODING 33
SWIDTH 602 0
DWIDTH 9 0
BBX 9 15 0 -3
BITMAP
0000
0000
1800
1800
1800
1800
1800
1800
1800
0000
1800
1800
0000
0000
0000
ENDCHAR

STARTCHAR quotedbl
ENCODING 34
SWIDTH 602 0
DWIDTH 9 0
BBX 9 15 0 -3
BITMAP
0000
0000
6C00
6C00
6C00
0000
0000
0000
0000
0000
0000
0000
0000
0000
0000
ENDCHAR

STARTCHAR numbersign
ENCODING 35
SWIDTH 602 0
DWIDTH 9 0
BBX 9 15 0 -3
BITMAP
0000
0000
0000
0000
3600
2400
FE00
2400
4800
FE00
4800
D800
0000
0000
0000
ENDCHAR

STARTCHAR dollar
ENCODING 36
SWIDTH 602 0
DWIDTH 9 0
BBX 9 15 0 -3
BITMAP
0000
1000
1000
7C00
D600
F000
7000
1C00
1E00
D600
7C00
1000
1000
0000
0000
ENDCHAR

STARTCHAR percent
ENCODING 37
SWIDTH 602 0
DWIDTH 9 0
BBX 9 15 0 -3
BITMAP
0000
0000
6600
9600
9C00
6C00
1800
3000
6C00
7200
D200
CC00
0000
0000
0000
ENDCHAR

STARTCHAR ampersand
ENCODING 38
SWIDTH 602 0
DWIDTH 9 0
BBX 9 15 0 -3
BITMAP
0000
0000
3800
2C00
6C00
6800
3600
7600
DA00
CC00
CE00
7600
0000
0000
0000
ENDCHAR

STARTCHAR quoteright
ENCODING 39
SWIDTH 602 0
DWIDTH 9 0
BBX 9 15 0 -3
BITMAP
0000
0000
3000
3000
3000
2000
0000
0000
0000
0000
0000
0000
0000
0000
0000
ENDCHAR

STARTCHAR parenleft
ENCODING 40
SWIDTH 602 0
DWIDTH 9 0
BBX 9 15 0 -3
BITMAP
0000
0800
1800
3000
3000
3000
3000
3000
3000
3000
3000
1800
0800
0000
0000
ENDCHAR

STARTCHAR parenright
ENCODING 41
SWIDTH 602 0
DWIDTH 9 0
BBX 9 15 0 -3
BITMAP
0000
1000
1800
0C00
0C00
0C00
0C00
0C00
0C00
0C00
0C00
1800
1000
0000
0000
ENDCHAR

STARTCHAR asterisk
ENCODING 42
SWIDTH 602 0
DWIDTH 9 0
BBX 9 15 0 -3
BITMAP
0000
0000
0000
0000
1800
5A00
7E00
3C00
7E00
5A00
1800
0000
0000
0000
0000
ENDCHAR

STARTCHAR plus
ENCODING 43
SWIDTH 602 0
DWIDTH 9 0
BBX 9 15 0 -3
BITMAP
0000
0000
0000
1800
1800
1800
7E00
7E00
1800
1800
1800
0000
0000
0000
0000
ENDCHAR

STARTCHAR comma
ENCODING 44
SWIDTH 602 0
DWIDTH 9 0
BBX 9 15 0 -3
BITMAP
0000
0000
0000
0000
0000
0000
0000
0000
0000
3000
3000
3000
6000
0000
0000
ENDCHAR

STARTCHAR minus
ENCODING 45
SWIDTH 602 0
DWIDTH 9 0
BBX 9 15 0 -3
BITMAP
0000
0000
0000
0000
0000
0000
FC00
FC00
0000
0000
0000
0000
0000
0000
0000
ENDCHAR

STARTCHAR period
ENCODING 46
SWIDTH 602 0
DWIDTH 9 0
BBX 9 15 0 -3
BITMAP
0000
0000
0000
0000
0000
0000
0000
0000
0000
3000
3000
3000
0000
0000
0000
ENDCHAR

STARTCHAR slash
ENCODING 47
SWIDTH 602 0
DWIDTH 9 0
BBX 9 15 0 -3
BITMAP
0000
0000
0C00
0C00
1800
1800
3000
3000
6000
6000
C000
C000
0000
0000
0000
ENDCHAR

STARTCHAR zero
ENCODING 48
SWIDTH 602 0
DWIDTH 9 0
BBX 9 15 0 -3
BITMAP
0000
0000
7E00
C600
C600
C600
C600
C600
C600
C600
C600
FC00
0000
0000
0000
ENDCHAR

STARTCHAR one
ENCODING 49
SWIDTH 602 0
DWIDTH 9 0
BBX 9 15 0 -3
BITMAP
0000
0000
1800
7800
1800
1800
1800
1800
1800
1800
1800
1800
0000
0000
0000
ENDCHAR

STARTCHAR two
ENCODING 50
SWIDTH 602 0
DWIDTH 9 0
BBX 9 15 0 -3
BITMAP
0000
0000
7C00
C600
C600
0600
0C00
1800
3000
6000
C000
FE00
0000
0000
0000
ENDCHAR

STARTCHAR three
ENCODING 51
SWIDTH 602 0
DWIDTH 9 0
BBX 9 15 0 -3
BITMAP
0000
0000
7C00
C600
C600
0600
1C00
0600
0600
C600
C600
7C00
0000
0000
0000
ENDCHAR

STARTCHAR four
ENCODING 52
SWIDTH 602 0
DWIDTH 9 0
BBX 9 15 0 -3
BITMAP
0000
0000
0600
0E00
1600
2600
4600
8600
FE00
0600
0600
0600
0000
0000
0000
ENDCHAR

STARTCHAR five
ENCODING 53
SWIDTH 602 0
DWIDTH 9 0
BBX 9 15 0 -3
BITMAP
0000
0000
FE00
C000
C000
C000
FC00
0600
0600
0600
C600
7C00
0000
0000
0000
ENDCHAR

STARTCHAR six
ENCODING 54
SWIDTH 602 0
DWIDTH 9 0
BBX 9 15 0 -3
BITMAP
0000
0000
7C00
C600
C000
C000
FC00
C600
C600
C600
C600
7C00
0000
0000
0000
ENDCHAR

STARTCHAR seven
ENCODING 55
SWIDTH 602 0
DWIDTH 9 0
BBX 9 15 0 -3
BITMAP
0000
0000
FE00
0600
0600
0C00
1800
3000
3000
3000
3000
3000
0000
0000
0000
ENDCHAR

STARTCHAR eight
ENCODING 56
SWIDTH 602 0
DWIDTH 9 0
BBX 9 15 0 -3
BITMAP
0000
0000
7C00
C600
C600
C600
7C00
C600
C600
C600
C600
7C00
0000
0000
0000
ENDCHAR

STARTCHAR nine
ENCODING 57
SWIDTH 602 0
DWIDTH 9 0
BBX 9 15 0 -3
BITMAP
0000
0000
7C00
C600
C600
C600
C600
7E00
0600
0600
C600
7C00
0000
0000
0000
ENDCHAR

STARTCHAR colon
ENCODING 58
SWIDTH 602 0
DWIDTH 9 0
BBX 9 15 0 -3
BITMAP
0000
0000
0000
0000
1800
1800
1800
0000
0000
1800
1800
1800
0000
0000
0000
ENDCHAR

STARTCHAR semicolon
ENCODING 59
SWIDTH 602 0
DWIDTH 9 0
BBX 9 15 0 -3
BITMAP
0000
0000
0000
0000
3000
3000
3000
0000
0000
3000
3000
3000
6000
0000
0000
ENDCHAR

STARTCHAR less
ENCODING 60
SWIDTH 602 0
DWIDTH 9 0
BBX 9 15 0 -3
BITMAP
0000
0000
0000
0400
0C00
1800
3000
6000
3000
1800
0C00
0400
0000
0000
0000
ENDCHAR

STARTCHAR equal
ENCODING 61
SWIDTH 602 0
DWIDTH 9 0
BBX 9 15 0 -3
BITMAP
0000
0000
0000
0000
FC00
FC00
0000
0000
FC00
FC00
0000
0000
0000
0000
0000
ENDCHAR

STARTCHAR greater
ENCODING 62
SWIDTH 602 0
DWIDTH 9 0
BBX 9 15 0 -3
BITMAP
0000
0000
0000
8000
C000
6000
3000
1800
3000
6000
C000
8000
0000
0000
0000
ENDCHAR

STARTCHAR question
ENCODING 63
SWIDTH 602 0
DWIDTH 9 0
BBX 9 15 0 -3
BITMAP
0000
0000
0000
7800
CC00
CC00
CC00
1800
3000
3000
0000
3000
0000
0000
0000
ENDCHAR

STARTCHAR at
ENCODING 64
SWIDTH 602 0
DWIDTH 9 0
BBX 9 15 0 -3
BITMAP
0000
0000
7C00
C600
DE00
E600
E600
E600
E600
DC00
C200
7C00
0000
0000
0000
ENDCHAR

STARTCHAR A
ENCODING 65
SWIDTH 602 0
DWIDTH 9 0
BBX 9 15 0 -3
BITMAP
0000
0000
7C00
C600
C600
C600
FE00
C600
C600
C600
C600
C600
0000
0000
0000
ENDCHAR

STARTCHAR B
ENCODING 66
SWIDTH 602 0
DWIDTH 9 0
BBX 9 15 0 -3
BITMAP
0000
0000
FC00
C600
C600
C600
FC00
C600
C600
C600
C600
FC00
0000
0000
0000
ENDCHAR

STARTCHAR C
ENCODING 67
SWIDTH 602 0
DWIDTH 9 0
BBX 9 15 0 -3
BITMAP
0000
0000
7C00
C600
C600
C000
C000
C000
C000
C600
C600
7C00
0000
0000
0000
ENDCHAR

STARTCHAR D
ENCODING 68
SWIDTH 602 0
DWIDTH 9 0
BBX 9 15 0 -3
BITMAP
0000
0000
FC00
C600
C600
C600
C600
C600
C600
C600
C600
FC00
0000
0000
0000
ENDCHAR

STARTCHAR E
ENCODING 69
SWIDTH 602 0
DWIDTH 9 0
BBX 9 15 0 -3
BITMAP
0000
0000
FE00
C000
C000
C000
F800
C000
C000
C000
C000
FE00
0000
0000
0000
ENDCHAR

STARTCHAR F
ENCODING 70
SWIDTH 602 0
DWIDTH 9 0
BBX 9 15 0 -3
BITMAP
0000
0000
FE00
C000
C000
C000
F800
C000
C000
C000
C000
C000
0000
0000
0000
ENDCHAR

STARTCHAR G
ENCODING 71
SWIDTH 602 0
DWIDTH 9 0
BBX 9 15 0 -3
BITMAP
0000
0000
7C00
C600
C600
C000
C000
DE00
C600
C600
C600
7C00
0000
0000
0000
ENDCHAR

STARTCHAR H
ENCODING 72
SWIDTH 602 0
DWIDTH 9 0
BBX 9 15 0 -3
BITMAP
0000
0000
C600
C600
C600
C600
FE00
C600
C600
C600
C600
C600
0000
0000
0000
ENDCHAR

STARTCHAR I
ENCODING 73
SWIDTH 602 0
DWIDTH 9 0
BBX 9 15 0 -3
BITMAP
0000
0000
3C00
1800
1800
1800
1800
1800
1800
1800
1800
3C00
0000
0000
0000
ENDCHAR

STARTCHAR J
ENCODING 74
SWIDTH 602 0
DWIDTH 9 0
BBX 9 15 0 -3
BITMAP
0000
0000
0600
0600
0600
0600
0600
0600
C600
C600
C600
7C00
0000
0000
0000
ENDCHAR

STARTCHAR K
ENCODING 75
SWIDTH 602 0
DWIDTH 9 0
BBX 9 15 0 -3
BITMAP
0000
0000
C200
C600
CC00
D800
F000
F000
D800
CC00
C600
C200
0000
0000
0000
ENDCHAR

STARTCHAR L
ENCODING 76
SWIDTH 602 0
DWIDTH 9 0
BBX 9 15 0 -3
BITMAP
0000
0000
C000
C000
C000
C000
C000
C000
C000
C000
C000
FE00
0000
0000
0000
ENDCHAR

STARTCHAR M
ENCODING 77
SWIDTH 602 0
DWIDTH 9 0
BBX 9 15 0 -3
BITMAP
0000
0000
8200
C600
EE00
BE00
9600
8600
8600
8600
8600
8600
0000
0000
0000
ENDCHAR

STARTCHAR N
ENCODING 78
SWIDTH 602 0
DWIDTH 9 0
BBX 9 15 0 -3
BITMAP
0000
0000
8200
C200
E200
F200
BA00
9E00
8E00
8600
8200
8200
0000
0000
0000
ENDCHAR

STARTCHAR O
ENCODING 79
SWIDTH 602 0
DWIDTH 9 0
BBX 9 15 0 -3
BITMAP
0000
0000
7C00
C600
C600
C600
C600
C600
C600
C600
C600
7C00
0000
0000
0000
ENDCHAR

STARTCHAR P
ENCODING 80
SWIDTH 602 0
DWIDTH 9 0
BBX 9 15 0 -3
BITMAP
0000
0000
FC00
C600
C600
C600
C600
FC00
C000
C000
C000
C000
0000
0000
0000
ENDCHAR

STARTCHAR Q
ENCODING 81
SWIDTH 602 0
DWIDTH 9 0
BBX 9 15 0 -3
BITMAP
0000
0000
7C00
C600
C600
C600
C600
C600
C600
C600
CE00
7C00
0600
0600
0000
ENDCHAR

STARTCHAR R
ENCODING 82
SWIDTH 602 0
DWIDTH 9 0
BBX 9 15 0 -3
BITMAP
0000
0000
FC00
C600
C600
C600
C600
FC00
CC00
C600
C600
C600
0000
0000
0000
ENDCHAR

STARTCHAR S
ENCODING 83
SWIDTH 602 0
DWIDTH 9 0
BBX 9 15 0 -3
BITMAP
0000
0000
7C00
C600
C600
E000
7800
1C00
0600
C600
C600
7C00
0000
0000
0000
ENDCHAR

STARTCHAR T
ENCODING 84
SWIDTH 602 0
DWIDTH 9 0
BBX 9 15 0 -3
BITMAP
0000
0000
FF00
1800
1800
1800
1800
1800
1800
1800
1800
1800
0000
0000
0000
ENDCHAR

STARTCHAR U
ENCODING 85
SWIDTH 602 0
DWIDTH 9 0
BBX 9 15 0 -3
BITMAP
0000
0000
C600
C600
C600
C600
C600
C600
C600
C600
C600
7C00
0000
0000
0000
ENDCHAR

STARTCHAR V
ENCODING 86
SWIDTH 602 0
DWIDTH 9 0
BBX 9 15 0 -3
BITMAP
0000
0000
C600
C600
C600
C600
C600
C600
C600
CC00
F800
7000
0000
0000
0000
ENDCHAR

STARTCHAR W
ENCODING 87
SWIDTH 602 0
DWIDTH 9 0
BBX 9 15 0 -3
BITMAP
0000
0000
C200
C200
C200
C200
C200
D200
FA00
FE00
EE00
4400
0000
0000
0000
ENDCHAR

STARTCHAR X
ENCODING 88
SWIDTH 602 0
DWIDTH 9 0
BBX 9 15 0 -3
BITMAP
0000
0000
C600
C600
C600
6C00
3800
3800
6C00
C600
C600
C600
0000
0000
0000
ENDCHAR

STARTCHAR Y
ENCODING 89
SWIDTH 602 0
DWIDTH 9 0
BBX 9 15 0 -3
BITMAP
0000
0000
C300
C300
C300
C300
6600
3C00
1800
1800
1800
1800
0000
0000
0000
ENDCHAR

STARTCHAR Z
ENCODING 90
SWIDTH 602 0
DWIDTH 9 0
BBX 9 15 0 -3
BITMAP
0000
0000
FE00
0600
0600
0C00
1800
3000
6000
C000
C000
FE00
0000
0000
0000
ENDCHAR

STARTCHAR bracketleft
ENCODING 91
SWIDTH 602 0
DWIDTH 9 0
BBX 9 15 0 -3
BITMAP
0000
7800
6000
6000
6000
6000
6000
6000
6000
6000
6000
6000
7800
0000
0000
ENDCHAR

STARTCHAR backslash
ENCODING 92
SWIDTH 602 0
DWIDTH 9 0
BBX 9 15 0 -3
BITMAP
0000
0000
C000
C000
6000
6000
3000
3000
1800
1800
0C00
0C00
0000
0000
0000
ENDCHAR

STARTCHAR bracketright
ENCODING 93
SWIDTH 602 0
DWIDTH 9 0
BBX 9 15 0 -3
BITMAP
0000
3C00
0C00
0C00
0C00
0C00
0C00
0C00
0C00
0C00
0C00
0C00
3C00
0000
0000
ENDCHAR

STARTCHAR asciicircum
ENCODING 94
SWIDTH 602 0
DWIDTH 9 0
BBX 9 15 0 -3
BITMAP
0000
0000
3800
6C00
C600
0000
0000
0000
0000
0000
0000
0000
0000
0000
0000
ENDCHAR

STARTCHAR underscore
ENCODING 95
SWIDTH 602 0
DWIDTH 9 0
BBX 9 15 0 -3
BITMAP
0000
0000
0000
0000
0000
0000
0000
0000
0000
0000
0000
FE00
FE00
0000
0000
ENDCHAR

STARTCHAR quoteleft
ENCODING 96
SWIDTH 602 0
DWIDTH 9 0
BBX 9 15 0 -3
BITMAP
0000
0000
1800
1800
1800
0800
0000
0000
0000
0000
0000
0000
0000
0000
0000
ENDCHAR

STARTCHAR a
ENCODING 97
SWIDTH 602 0
DWIDTH 9 0
BBX 9 15 0 -3
BITMAP
0000
0000
0000
0000
0000
7C00
C600
7E00
C600
C600
CE00
7600
0000
0000
0000
ENDCHAR

STARTCHAR b
ENCODING 98
SWIDTH 602 0
DWIDTH 9 0
BBX 9 15 0 -3
BITMAP
0000
0000
C000
C000
C000
DC00
E600
C600
C600
C600
C600
FC00
0000
0000
0000
ENDCHAR

STARTCHAR c
ENCODING 99
SWIDTH 602 0
DWIDTH 9 0
BBX 9 15 0 -3
BITMAP
0000
0000
0000
0000
0000
7C00
C600
C000
C000
C000
C600
7C00
0000
0000
0000
ENDCHAR

STARTCHAR d
ENCODING 100
SWIDTH 602 0
DWIDTH 9 0
BBX 9 15 0 -3
BITMAP
0000
0000
0600
0600
0600
7E00
C600
C600
C600
C600
CE00
7600
0000
0000
0000
ENDCHAR

STARTCHAR e
ENCODING 101
SWIDTH 602 0
DWIDTH 9 0
BBX 9 15 0 -3
BITMAP
0000
0000
0000
0000
0000
7C00
C600
C600
FE00
C000
C600
7C00
0000
0000
0000
ENDCHAR

STARTCHAR f
ENCODING 102
SWIDTH 602 0
DWIDTH 9 0
BBX 9 15 0 -3
BITMAP
0000
0000
1C00
3000
3000
7C00
3000
3000
3000
3000
3000
3000
0000
0000
0000
ENDCHAR

STARTCHAR g
ENCODING 103
SWIDTH 602 0
DWIDTH 9 0
BBX 9 15 0 -3
BITMAP
0000
0000
0000
0000
0000
7E00
C600
C600
C600
CE00
7600
0600
C600
7C00
0000
ENDCHAR

STARTCHAR h
ENCODING 104
SWIDTH 602 0
DWIDTH 9 0
BBX 9 15 0 -3
BITMAP
0000
0000
C000
C000
C000
DC00
E600
C600
C600
C600
C600
C600
0000
0000
0000
ENDCHAR

STARTCHAR i
ENCODING 105
SWIDTH 602 0
DWIDTH 9 0
BBX 9 15 0 -3
BITMAP
0000
0000
1800
1800
0000
3800
1800
1800
1800
1800
1800
3C00
0000
0000
0000
ENDCHAR

STARTCHAR j
ENCODING 106
SWIDTH 602 0
DWIDTH 9 0
BBX 9 15 0 -3
BITMAP
0000
0000
1800
1800
0000
3800
1800
1800
1800
1800
1800
1800
1800
7000
0000
ENDCHAR

STARTCHAR k
ENCODING 107
SWIDTH 602 0
DWIDTH 9 0
BBX 9 15 0 -3
BITMAP
0000
0000
C000
C000
C000
CE00
D800
F000
F000
D800
CC00
C600
0000
0000
0000
ENDCHAR

STARTCHAR l
ENCODING 108
SWIDTH 602 0
DWIDTH 9 0
BBX 9 15 0 -3
BITMAP
0000
0000
3800
1800
1800
1800
1800
1800
1800
1800
1800
3C00
0000
0000
0000
ENDCHAR

STARTCHAR m
ENCODING 109
SWIDTH 602 0
DWIDTH 9 0
BBX 9 15 0 -3
BITMAP
0000
0000
0000
0000
0000
C600
EE00
FE00
D600
C600
C600
C600
0000
0000
0000
ENDCHAR

STARTCHAR n
ENCODING 110
SWIDTH 602 0
DWIDTH 9 0
BBX 9 15 0 -3
BITMAP
0000
0000
0000
0000
0000
DC00
E600
C600
C600
C600
C600
C600
0000
0000
0000
ENDCHAR

STARTCHAR o
ENCODING 111
SWIDTH 602 0
DWIDTH 9 0
BBX 9 15 0 -3
BITMAP
0000
0000
0000
0000
0000
7C00
C600
C600
C600
C600
C600
7C00
0000
0000
0000
ENDCHAR

STARTCHAR p
ENCODING 112
SWIDTH 602 0
DWIDTH 9 0
BBX 9 15 0 -3
BITMAP
0000
0000
0000
0000
0000
DC00
E600
C600
C600
C600
FC00
C000
C000
C000
0000
ENDCHAR

STARTCHAR q
ENCODING 113
SWIDTH 602 0
DWIDTH 9 0
BBX 9 15 0 -3
BITMAP
0000
0000
0000
0000
0000
7E00
C600
C600
C600
CE00
7600
0600
0600
0600
0000
ENDCHAR

STARTCHAR r
ENCODING 114
SWIDTH 602 0
DWIDTH 9 0
BBX 9 15 0 -3
BITMAP
0000
0000
0000
0000
0000
6F00
7300
6000
6000
6000
6000
6000
0000
0000
0000
ENDCHAR

STARTCHAR s
ENCODING 115
SWIDTH 602 0
DWIDTH 9 0
BBX 9 15 0 -3
BITMAP
0000
0000
0000
0000
0000
7C00
C600
E000
3800
0E00
C600
7C00
0000
0000
0000
ENDCHAR

STARTCHAR t
ENCODING 116
SWIDTH 602 0
DWIDTH 9 0
BBX 9 15 0 -3
BITMAP
0000
0000
3000
3000
3000
FC00
3000
3000
3000
3000
3000
1C00
0000
0000
0000
ENDCHAR

STARTCHAR u
ENCODING 117
SWIDTH 602 0
DWIDTH 9 0
BBX 9 15 0 -3
BITMAP
0000
0000
0000
0000
0000
C600
C600
C600
C600
C600
CE00
7600
0000
0000
0000
ENDCHAR

STARTCHAR v
ENCODING 118
SWIDTH 602 0
DWIDTH 9 0
BBX 9 15 0 -3
BITMAP
0000
0000
0000
0000
0000
C600
C600
C600
C600
C400
C800
F000
0000
0000
0000
ENDCHAR

STARTCHAR w
ENCODING 119
SWIDTH 602 0
DWIDTH 9 0
BBX 9 15 0 -3
BITMAP
0000
0000
0000
0000
0000
C600
C600
C600
D600
FE00
EE00
C600
0000
0000
0000
ENDCHAR

STARTCHAR x
ENCODING 120
SWIDTH 602 0
DWIDTH 9 0
BBX 9 15 0 -3
BITMAP
0000
0000
0000
0000
0000
C600
C600
6C00
3800
6C00
C600
C600
0000
0000
0000
ENDCHAR

STARTCHAR y
ENCODING 121
SWIDTH 602 0
DWIDTH 9 0
BBX 9 15 0 -3
BITMAP
0000
0000
0000
0000
0000
C600
C600
C600
C600
CE00
7600
0600
C600
7C00
0000
ENDCHAR

STARTCHAR z
ENCODING 122
SWIDTH 602 0
DWIDTH 9 0
BBX 9 15 0 -3
BITMAP
0000
0000
0000
0000
0000
FE00
0600
0C00
3800
6000
C000
FE00
0000
0000
0000
ENDCHAR

STARTCHAR braceleft
ENCODING 123
SWIDTH 602 0
DWIDTH 9 0
BBX 9 15 0 -3
BITMAP
0000
1800
3000
3000
3000
3000
6000
6000
3000
3000
3000
3000
1800
0000
0000
ENDCHAR

STARTCHAR bar
ENCODING 124
SWIDTH 602 0
DWIDTH 9 0
BBX 9 15 0 -3
BITMAP
0000
3000
3000
3000
3000
3000
3000
3000
3000
3000
3000
3000
3000
3000
0000
ENDCHAR

STARTCHAR braceright
ENCODING 125
SWIDTH 602 0
DWIDTH 9 0
BBX 9 15 0 -3
BITMAP
0000
6000
3000
3000
3000
3000
1800
1800
3000
3000
3000
3000
6000
0000
0000
ENDCHAR

STARTCHAR asciitilde
ENCODING 126
SWIDTH 602 0
DWIDTH 9 0
BBX 9 15 0 -3
BITMAP
0000
0000
0000
0000
2000
7200
CE00
0400
0000
0000
0000
0000
0000
0000
0000
ENDCHAR

STARTCHAR exclamdown
ENCODING 161
SWIDTH 602 0
DWIDTH 9 0
BBX 9 15 0 -3
BITMAP
0000
0000
0000
0000
1800
1800
0000
1800
1800
1800
1800
1800
1800
1800
0000
ENDCHAR

STARTCHAR cent
ENCODING 162
SWIDTH 602 0
DWIDTH 9 0
BBX 9 15 0 -3
BITMAP
0000
0000
0000
1000
1000
7C00
D600
D000
D000
D000
D600
7C00
1000
1000
0000
ENDCHAR

STARTCHAR sterling
ENCODING 163
SWIDTH 602 0
DWIDTH 9 0
BBX 9 15 0 -3
BITMAP
0000
0000
3800
6C00
6000
6000
F800
6000
6000
6000
6000
FE00
0000
0000
0000
ENDCHAR

STARTCHAR currency
ENCODING 164
SWIDTH 602 0
DWIDTH 9 0
BBX 9 15 0 -3
BITMAP
0000
0000
0000
0000
8200
FE00
6C00
C600
C600
6C00
FE00
8200
0000
0000
0000
ENDCHAR

STARTCHAR yen
ENCODING 165
SWIDTH 602 0
DWIDTH 9 0
BBX 9 15 0 -3
BITMAP
0000
0000
C300
C300
C300
6600
3C00
7E00
1800
7E00
1800
1800
0000
0000
0000
ENDCHAR

STARTCHAR brokenbar
ENCODING 166
SWIDTH 602 0
DWIDTH 9 0
BBX 9 15 0 -3
BITMAP
0000
1800
1800
1800
1800
1800
0000
0000
0000
1800
1800
1800
1800
1800
0000
ENDCHAR

STARTCHAR section
ENCODING 167
SWIDTH 602 0
DWIDTH 9 0
BBX 9 15 0 -3
BITMAP
0000
0000
7C00
C600
C600
7800
FC00
C600
C600
7E00
3C00
C600
C600
7C00
0000
ENDCHAR

STARTCHAR dieresis
ENCODING 168
SWIDTH 602 0
DWIDTH 9 0
BBX 9 15 0 -3
BITMAP
0000
3600
3600
0000
0000
0000
0000
0000
0000
0000
0000
0000
0000
0000
0000
ENDCHAR

STARTCHAR copyright
ENCODING 169
SWIDTH 602 0
DWIDTH 9 0
BBX 9 15 0 -3
BITMAP
0000
0000
0000
3C00
4200
9D00
B500
B100
B500
9D00
4200
3C00
0000
0000
0000
ENDCHAR

STARTCHAR ordfeminine
ENCODING 170
SWIDTH 602 0
DWIDTH 9 0
BBX 9 15 0 -3
BITMAP
0000
0000
3C00
6600
3E00
6600
6E00
3600
0000
7E00
0000
0000
0000
0000
0000
ENDCHAR

STARTCHAR guillemotleft
ENCODING 171
SWIDTH 602 0
DWIDTH 9 0
BBX 9 15 0 -3
BITMAP
0000
0000
0000
0000
1B00
3600
6C00
D800
6C00
3600
1B00
0000
0000
0000
0000
ENDCHAR

STARTCHAR logicalnot
ENCODING 172
SWIDTH 602 0
DWIDTH 9 0
BBX 9 15 0 -3
BITMAP
0000
0000
0000
0000
7E00
0600
0600
0000
0000
0000
0000
0000
0000
0000
0000
ENDCHAR

STARTCHAR hyphen
ENCODING 173
SWIDTH 602 0
DWIDTH 9 0
BBX 9 15 0 -3
BITMAP
0000
0000
0000
0000
0000
0000
7C00
7C00
0000
0000
0000
0000
0000
0000
0000
ENDCHAR

STARTCHAR registered
ENCODING 174
SWIDTH 602 0
DWIDTH 9 0
BBX 9 15 0 -3
BITMAP
0000
0000
0000
3C00
4200
BD00
B700
BD00
B500
B700
4200
3C00
0000
0000
0000
ENDCHAR

STARTCHAR macron
ENCODING 175
SWIDTH 602 0
DWIDTH 9 0
BBX 9 15 0 -3
BITMAP
0000
0000
3C00
3C00
0000
0000
0000
0000
0000
0000
0000
0000
0000
0000
0000
ENDCHAR

STARTCHAR degree
ENCODING 176
SWIDTH 602 0
DWIDTH 9 0
BBX 9 15 0 -3
BITMAP
0000
0000
1C00
1400
1C00
0000
0000
0000
0000
0000
0000
0000
0000
0000
0000
ENDCHAR

STARTCHAR plusminus
ENCODING 177
SWIDTH 602 0
DWIDTH 9 0
BBX 9 15 0 -3
BITMAP
0000
0000
0000
1800
1800
7E00
7E00
1800
1800
0000
7E00
7E00
0000
0000
0000
ENDCHAR

STARTCHAR twosuperior
ENCODING 178
SWIDTH 602 0
DWIDTH 9 0
BBX 9 15 0 -3
BITMAP
0000
3800
6C00
0C00
3800
6000
7C00
0000
0000
0000
0000
0000
0000
0000
0000
ENDCHAR

STARTCHAR threesuperior
ENCODING 179
SWIDTH 602 0
DWIDTH 9 0
BBX 9 15 0 -3
BITMAP
0000
7C00
0C00
3800
0C00
6C00
3800
0000
0000
0000
0000
0000
0000
0000
0000
ENDCHAR

STARTCHAR acute
ENCODING 180
SWIDTH 602 0
DWIDTH 9 0
BBX 9 15 0 -3
BITMAP
0000
0600
0C00
1800
0000
0000
0000
0000
0000
0000
0000
0000
0000
0000
0000
ENDCHAR

STARTCHAR mu
ENCODING 181
SWIDTH 602 0
DWIDTH 9 0
BBX 9 15 0 -3
BITMAP
0000
0000
0000
0000
0000
6600
6600
6600
6600
6600
7E00
DB00
C000
8000
0000
ENDCHAR

STARTCHAR paragraph
ENCODING 182
SWIDTH 602 0
DWIDTH 9 0
BBX 9 15 0 -3
BITMAP
0000
0000
3D00
6500
6500
6500
6500
6500
3D00
0500
0500
0500
0000
0000
0000
ENDCHAR

STARTCHAR periodcentered
ENCODING 183
SWIDTH 602 0
DWIDTH 9 0
BBX 9 15 0 -3
BITMAP
0000
0000
0000
0000
0000
1C00
3E00
3E00
3E00
1C00
0000
0000
0000
0000
0000
ENDCHAR

STARTCHAR cedilla
ENCODING 184
SWIDTH 602 0
DWIDTH 9 0
BBX 9 15 0 -3
BITMAP
0000
0000
0000
0000
0000
0000
0000
0000
0000
0000
0000
0000
1800
6C00
3800
ENDCHAR

STARTCHAR onesuperior
ENCODING 185
SWIDTH 602 0
DWIDTH 9 0
BBX 9 15 0 -3
BITMAP
0000
0C00
3C00
0C00
0C00
0C00
0C00
0C00
0000
0000
0000
0000
0000
0000
0000
ENDCHAR

STARTCHAR ordmasculine
ENCODING 186
SWIDTH 602 0
DWIDTH 9 0
BBX 9 15 0 -3
BITMAP
0000
0000
3C00
6600
6600
6600
6600
3C00
0000
7E00
0000
0000
0000
0000
0000
ENDCHAR

STARTCHAR guillemotright
ENCODING 187
SWIDTH 602 0
DWIDTH 9 0
BBX 9 15 0 -3
BITMAP
0000
0000
0000
0000
D800
6C00
3600
1B00
3600
6C00
D800
0000
0000
0000
0000
ENDCHAR

STARTCHAR onequarter
ENCODING 188
SWIDTH 602 0
DWIDTH 9 0
BBX 9 15 0 -3
BITMAP
0000
6000
E600
6600
6C00
6F00
7F00
7F00
3B00
3F00
6300
6300
0000
0000
0000
ENDCHAR

STARTCHAR onehalf
ENCODING 189
SWIDTH 602 0
DWIDTH 9 0
BBX 9 15 0 -3
BITMAP
0000
6000
E600
6600
6C00
6C00
7E00
7B00
3300
6E00
D800
DF00
0000
0000
0000
ENDCHAR

STARTCHAR threequarters
ENCODING 190
SWIDTH 602 0
DWIDTH 9 0
BBX 9 15 0 -3
BITMAP
0000
F800
1A00
7600
1C00
DF00
7F00
1F00
3B00
3F00
6300
6300
0000
0000
0000
ENDCHAR

STARTCHAR questiondown
ENCODING 191
SWIDTH 602 0
DWIDTH 9 0
BBX 9 15 0 -3
BITMAP
0000
0000
0000
0000
1800
0000
1800
1800
1800
3000
6600
6600
6600
3C00
0000
ENDCHAR

STARTCHAR Agrave
ENCODING 192
SWIDTH 602 0
DWIDTH 9 0
BBX 9 15 0 -3
BITMAP
0000
6000
3000
1000
7C00
C600
C600
FE00
C600
C600
C600
C600
0000
0000
0000
ENDCHAR

STARTCHAR Aacute
ENCODING 193
SWIDTH 602 0
DWIDTH 9 0
BBX 9 15 0 -3
BITMAP
0000
0C00
1800
1000
7C00
C600
C600
FE00
C600
C600
C600
C600
0000
0000
0000
ENDCHAR

STARTCHAR Acircumflex
ENCODING 194
SWIDTH 602 0
DWIDTH 9 0
BBX 9 15 0 -3
BITMAP
1000
3800
6C00
1000
7C00
C600
C600
FE00
C600
C600
C600
C600
0000
0000
0000
ENDCHAR

STARTCHAR Atilde
ENCODING 195
SWIDTH 602 0
DWIDTH 9 0
BBX 9 15 0 -3
BITMAP
2400
7C00
D800
0000
7C00
C600
C600
FE00
C600
C600
C600
C600
0000
0000
0000
ENDCHAR

STARTCHAR Adieresis
ENCODING 196
SWIDTH 602 0
DWIDTH 9 0
BBX 9 15 0 -3
BITMAP
0000
6C00
6C00
0000
7C00
C600
C600
FE00
C600
C600
C600
C600
0000
0000
0000
ENDCHAR

STARTCHAR Aring
ENCODING 197
SWIDTH 602 0
DWIDTH 9 0
BBX 9 15 0 -3
BITMAP
0000
3800
6C00
3800
7C00
C600
C600
FE00
C600
C600
C600
C600
0000
0000
0000
ENDCHAR

STARTCHAR AE
ENCODING 198
SWIDTH 602 0
DWIDTH 9 0
BBX 9 15 0 -3
BITMAP
0000
0000
3700
7C00
CC00
CC00
FF00
CC00
CC00
CC00
CC00
CF00
0000
0000
0000
ENDCHAR

STARTCHAR Ccedilla
ENCODING 199
SWIDTH 602 0
DWIDTH 9 0
BBX 9 15 0 -3
BITMAP
0000
0000
7C00
C600
C600
C000
C000
C000
C000
C600
C600
7C00
1800
6C00
3800
ENDCHAR

STARTCHAR Egrave
ENCODING 200
SWIDTH 602 0
DWIDTH 9 0
BBX 9 15 0 -3
BITMAP
0000
6000
3000
1000
FE00
C000
C000
F800
C000
C000
C000
FE00
0000
0000
0000
ENDCHAR

STARTCHAR Eacute
ENCODING 201
SWIDTH 602 0
DWIDTH 9 0
BBX 9 15 0 -3
BITMAP
0000
0C00
1800
1000
FE00
C000
C000
F800
C000
C000
C000
FE00
0000
0000
0000
ENDCHAR

STARTCHAR Ecircumflex
ENCODING 202
SWIDTH 602 0
DWIDTH 9 0
BBX 9 15 0 -3
BITMAP
0800
1C00
3600
0000
FE00
C000
C000
F800
C000
C000
C000
FE00
0000
0000
0000
ENDCHAR

STARTCHAR Edieresis
ENCODING 203
SWIDTH 602 0
DWIDTH 9 0
BBX 9 15 0 -3
BITMAP
0000
6C00
6C00
0000
FE00
C000
C000
F800
C000
C000
C000
FE00
0000
0000
0000
ENDCHAR

STARTCHAR Igrave
ENCODING 204
SWIDTH 602 0
DWIDTH 9 0
BBX 9 15 0 -3
BITMAP
0000
3000
1800
0800
3C00
1800
1800
1800
1800
1800
1800
3C00
0000
0000
0000
ENDCHAR

STARTCHAR Iacute
ENCODING 205
SWIDTH 602 0
DWIDTH 9 0
BBX 9 15 0 -3
BITMAP
0000
0C00
1800
1000
3C00
1800
1800
1800
1800
1800
1800
3C00
0000
0000
0000
ENDCHAR

STARTCHAR Icircumflex
ENCODING 206
SWIDTH 602 0
DWIDTH 9 0
BBX 9 15 0 -3
BITMAP
1000
3800
6C00
0000
3C00
1800
1800
1800
1800
1800
1800
3C00
0000
0000
0000
ENDCHAR

STARTCHAR Idieresis
ENCODING 207
SWIDTH 602 0
DWIDTH 9 0
BBX 9 15 0 -3
BITMAP
0000
6C00
6C00
0000
3C00
1800
1800
1800
1800
1800
1800
3C00
0000
0000
0000
ENDCHAR

STARTCHAR Eth
ENCODING 208
SWIDTH 602 0
DWIDTH 9 0
BBX 9 15 0 -3
BITMAP
0000
0000
7C00
6600
6600
6600
F600
F600
6600
6600
6600
7C00
0000
0000
0000
ENDCHAR

STARTCHAR Ntilde
ENCODING 209
SWIDTH 602 0
DWIDTH 9 0
BBX 9 15 0 -3
BITMAP
2400
7C00
D800
0000
C200
E200
F200
BA00
9E00
8E00
8600
8200
0000
0000
0000
ENDCHAR

STARTCHAR Ograve
ENCODING 210
SWIDTH 602 0
DWIDTH 9 0
BBX 9 15 0 -3
BITMAP
0000
6000
3000
1000
7C00
C600
C600
C600
C600
C600
C600
7C00
0000
0000
0000
ENDCHAR

STARTCHAR Oacute
ENCODING 211
SWIDTH 602 0
DWIDTH 9 0
BBX 9 15 0 -3
BITMAP
0000
0C00
1800
1000
7C00
C600
C600
C600
C600
C600
C600
7C00
0000
0000
0000
ENDCHAR

STARTCHAR Ocircumflex
ENCODING 212
SWIDTH 602 0
DWIDTH 9 0
BBX 9 15 0 -3
BITMAP
1000
3800
6C00
0000
7C00
C600
C600
C600
C600
C600
C600
7C00
0000
0000
0000
ENDCHAR

STARTCHAR Otilde
ENCODING 213
SWIDTH 602 0
DWIDTH 9 0
BBX 9 15 0 -3
BITMAP
2400
7C00
D800
0000
7C00
C600
C600
C600
C600
C600
C600
7C00
0000
0000
0000
ENDCHAR

STARTCHAR Odieresis
ENCODING 214
SWIDTH 602 0
DWIDTH 9 0
BBX 9 15 0 -3
BITMAP
0000
6C00
6C00
0000
7C00
C600
C600
C600
C600
C600
C600
7C00
0000
0000
0000
ENDCHAR

STARTCHAR multiply
ENCODING 215
SWIDTH 602 0
DWIDTH 9 0
BBX 9 15 0 -3
BITMAP
0000
0000
0000
0000
C600
EE00
7C00
3800
7C00
EE00
C600
0000
0000
0000
0000
ENDCHAR

STARTCHAR Oslash
ENCODING 216
SWIDTH 602 0
DWIDTH 9 0
BBX 9 15 0 -3
BITMAP
0000
0600
7C00
CE00
CE00
DE00
D600
D600
F600
E600
E600
7C00
C000
0000
0000
ENDCHAR

STARTCHAR Ugrave
ENCODING 217
SWIDTH 602 0
DWIDTH 9 0
BBX 9 15 0 -3
BITMAP
0000
6000
3000
1800
C600
C600
C600
C600
C600
C600
C600
7C00
0000
0000
0000
ENDCHAR

STARTCHAR Uacute
ENCODING 218
SWIDTH 602 0
DWIDTH 9 0
BBX 9 15 0 -3
BITMAP
0000
0C00
1800
3000
C600
C600
C600
C600
C600
C600
C600
7C00
0000
0000
0000
ENDCHAR

STARTCHAR Ucircumflex
ENCODING 219
SWIDTH 602 0
DWIDTH 9 0
BBX 9 15 0 -3
BITMAP
1000
3800
6C00
0000
C600
C600
C600
C600
C600
C600
C600
7C00
0000
0000
0000
ENDCHAR

STARTCHAR Udieresis
ENCODING 220
SWIDTH 602 0
DWIDTH 9 0
BBX 9 15 0 -3
BITMAP
0000
6C00
6C00
0000
C600
C600
C600
C600
C600
C600
C600
7C00
0000
0000
0000
ENDCHAR

STARTCHAR Yacute
ENCODING 221
SWIDTH 602 0
DWIDTH 9 0
BBX 9 15 0 -3
BITMAP
0000
0C00
1800
3000
C300
C300
C300
6600
3C00
1800
1800
1800
0000
0000
0000
ENDCHAR

STARTCHAR Thorn
ENCODING 222
SWIDTH 602 0
DWIDTH 9 0
BBX 9 15 0 -3
BITMAP
0000
6000
6000
6000
7C00
6600
6600
6600
7C00
6000
6000
6000
0000
0000
0000
ENDCHAR

STARTCHAR germandbls
ENCODING 223
SWIDTH 602 0
DWIDTH 9 0
BBX 9 15 0 -3
BITMAP
0000
0000
F800
CC00
CC00
D800
D800
CC00
C600
C600
D600
DC00
0000
0000
0000
ENDCHAR

STARTCHAR agrave
ENCODING 224
SWIDTH 602 0
DWIDTH 9 0
BBX 9 15 0 -3
BITMAP
0000
6000
3000
1800
0000
7C00
C600
7E00
C600
C600
CE00
7600
0000
0000
0000
ENDCHAR

STARTCHAR aacute
ENCODING 225
SWIDTH 602 0
DWIDTH 9 0
BBX 9 15 0 -3
BITMAP
0000
0C00
1800
3000
0000
7C00
C600
7E00
C600
C600
CE00
7600
0000
0000
0000
ENDCHAR

STARTCHAR acircumflex
ENCODING 226
SWIDTH 602 0
DWIDTH 9 0
BBX 9 15 0 -3
BITMAP
0000
1000
3800
6C00
0000
7C00
C600
7E00
C600
C600
CE00
7600
0000
0000
0000
ENDCHAR

STARTCHAR atilde
ENCODING 227
SWIDTH 602 0
DWIDTH 9 0
BBX 9 15 0 -3
BITMAP
0000
2400
7C00
D800
0000
7C00
C600
7E00
C600
C600
CE00
7600
0000
0000
0000
ENDCHAR

STARTCHAR adieresis
ENCODING 228
SWIDTH 602 0
DWIDTH 9 0
BBX 9 15 0 -3
BITMAP
0000
6C00
6C00
0000
0000
7C00
C600
7E00
C600
C600
CE00
7600
0000
0000
0000
ENDCHAR

STARTCHAR aring
ENCODING 229
SWIDTH 602 0
DWIDTH 9 0
BBX 9 15 0 -3
BITMAP
0000
0000
3800
2800
3800
7C00
C600
7E00
C600
C600
CE00
7600
0000
0000
0000
ENDCHAR

STARTCHAR ae
ENCODING 230
SWIDTH 602 0
DWIDTH 9 0
BBX 9 15 0 -3
BITMAP
0000
0000
0000
0000
0000
7E00
DB00
7B00
DF00
D800
DF00
7600
0000
0000
0000
ENDCHAR

STARTCHAR ccedilla
ENCODING 231
SWIDTH 602 0
DWIDTH 9 0
BBX 9 15 0 -3
BITMAP
0000
0000
0000
0000
0000
7C00
C600
C000
C000
C000
C600
7C00
1800
6C00
3800
ENDCHAR

STARTCHAR egrave
ENCODING 232
SWIDTH 602 0
DWIDTH 9 0
BBX 9 15 0 -3
BITMAP
0000
6000
3000
1800
0000
7C00
C600
C600
FE00
C000
C600
7C00
0000
0000
0000
ENDCHAR

STARTCHAR eacute
ENCODING 233
SWIDTH 602 0
DWIDTH 9 0
BBX 9 15 0 -3
BITMAP
0000
0C00
1800
3000
0000
7C00
C600
C600
FE00
C000
C600
7C00
0000
0000
0000
ENDCHAR

STARTCHAR ecircumflex
ENCODING 234
SWIDTH 602 0
DWIDTH 9 0
BBX 9 15 0 -3
BITMAP
0000
1000
3800
6C00
0000
7C00
C600
C600
FE00
C000
C600
7C00
0000
0000
0000
ENDCHAR

STARTCHAR edieresis
ENCODING 235
SWIDTH 602 0
DWIDTH 9 0
BBX 9 15 0 -3
BITMAP
0000
6C00
6C00
0000
0000
7C00
C600
C600
FE00
C000
C600
7C00
0000
0000
0000
ENDCHAR

STARTCHAR igrave
ENCODING 236
SWIDTH 602 0
DWIDTH 9 0
BBX 9 15 0 -3
BITMAP
0000
3000
1800
0C00
0000
3800
1800
1800
1800
1800
1800
3C00
0000
0000
0000
ENDCHAR

STARTCHAR iacute
ENCODING 237
SWIDTH 602 0
DWIDTH 9 0
BBX 9 15 0 -3
BITMAP
0000
0C00
1800
3000
0000
3800
1800
1800
1800
1800
1800
3C00
0000
0000
0000
ENDCHAR

STARTCHAR icircumflex
ENCODING 238
SWIDTH 602 0
DWIDTH 9 0
BBX 9 15 0 -3
BITMAP
0000
1000
3800
6C00
0000
3800
1800
1800
1800
1800
1800
3C00
0000
0000
0000
ENDCHAR

STARTCHAR idieresis
ENCODING 239
SWIDTH 602 0
DWIDTH 9 0
BBX 9 15 0 -3
BITMAP
0000
6C00
6C00
0000
0000
3800
1800
1800
1800
1800
1800
3C00
0000
0000
0000
ENDCHAR

STARTCHAR eth
ENCODING 240
SWIDTH 602 0
DWIDTH 9 0
BBX 9 15 0 -3
BITMAP
0000
C800
7800
7000
D800
1C00
6C00
C600
C600
C600
C600
7C00
0000
0000
0000
ENDCHAR

STARTCHAR ntilde
ENCODING 241
SWIDTH 602 0
DWIDTH 9 0
BBX 9 15 0 -3
BITMAP
0000
2400
7C00
D800
0000
DC00
E600
C600
C600
C600
C600
C600
0000
0000
0000
ENDCHAR

STARTCHAR ograve
ENCODING 242
SWIDTH 602 0
DWIDTH 9 0
BBX 9 15 0 -3
BITMAP
0000
6000
3000
1800
0000
7C00
C600
C600
C600
C600
C600
7C00
0000
0000
0000
ENDCHAR

STARTCHAR oacute
ENCODING 243
SWIDTH 602 0
DWIDTH 9 0
BBX 9 15 0 -3
BITMAP
0000
0C00
1800
3000
0000
7C00
C600
C600
C600
C600
C600
7C00
0000
0000
0000
ENDCHAR

STARTCHAR ocircumflex
ENCODING 244
SWIDTH 602 0
DWIDTH 9 0
BBX 9 15 0 -3
BITMAP
0000
1000
3800
6C00
0000
7C00
C600
C600
C600
C600
C600
7C00
0000
0000
0000
ENDCHAR

STARTCHAR otilde
ENCODING 245
SWIDTH 602 0
DWIDTH 9 0
BBX 9 15 0 -3
BITMAP
0000
2400
7C00
D800
0000
7C00
C600
C600
C600
C600
C600
7C00
0000
0000
0000
ENDCHAR

STARTCHAR odieresis
ENCODING 246
SWIDTH 602 0
DWIDTH 9 0
BBX 9 15 0 -3
BITMAP
0000
6C00
6C00
0000
0000
7C00
C600
C600
C600
C600
C600
7C00
0000
0000
0000
ENDCHAR

STARTCHAR divide
ENCODING 247
SWIDTH 602 0
DWIDTH 9 0
BBX 9 15 0 -3
BITMAP
0000
0000
0000
1800
1800
0000
7E00
7E00
0000
1800
1800
0000
0000
0000
0000
ENDCHAR

STARTCHAR oslash
ENCODING 248
SWIDTH 602 0
DWIDTH 9 0
BBX 9 15 0 -3
BITMAP
0000
0000
0000
0000
0600
7C00
CE00
DE00
D600
F600
E600
7C00
C000
0000
0000
ENDCHAR

STARTCHAR ugrave
ENCODING 249
SWIDTH 602 0
DWIDTH 9 0
BBX 9 15 0 -3
BITMAP
0000
6000
3000
1800
0000
C600
C600
C600
C600
C600
CE00
7600
0000
0000
0000
ENDCHAR

STARTCHAR uacute
ENCODING 250
SWIDTH 602 0
DWIDTH 9 0
BBX 9 15 0 -3
BITMAP
0000
0C00
1800
3000
0000
C600
C600
C600
C600
C600
CE00
7600
0000
0000
0000
ENDCHAR

STARTCHAR ucircumflex
ENCODING 251
SWIDTH 602 0
DWIDTH 9 0
BBX 9 15 0 -3
BITMAP
0000
1000
3800
6C00
0000
C600
C600
C600
C600
C600
CE00
7600
0000
0000
0000
ENDCHAR

STARTCHAR udieresis
ENCODING 252
SWIDTH 602 0
DWIDTH 9 0
BBX 9 15 0 -3
BITMAP
0000
6C00
6C00
0000
0000
C600
C600
C600
C600
C600
CE00
7600
0000
0000
0000
ENDCHAR

STARTCHAR yacute
ENCODING 253
SWIDTH 602 0
DWIDTH 9 0
BBX 9 15 0 -3
BITMAP
0000
0C00
1800
3000
0000
C600
C600
C600
C600
CE00
7600
0600
C600
7C00
0000
ENDCHAR

STARTCHAR thorn
ENCODING 254
SWIDTH 602 0
DWIDTH 9 0
BBX 9 15 0 -3
BITMAP
0000
0000
0000
6000
6000
6000
7C00
6600
6600
6600
7C00
6000
6000
6000
0000
ENDCHAR

STARTCHAR ydieresis
ENCODING 255
SWIDTH 602 0
DWIDTH 9 0
BBX 9 15 0 -3
BITMAP
0000
6C00
6C00
0000
0000
C600
C600
C600
C600
CE00
7600
0600
C600
7C00
0000
ENDCHAR
ENDFONT
